<?xml version="1.0" encoding="UTF-8"?>
<svg version="1.1" xmlns="http://www.w3.org/2000/svg" width="449" height="112">
<path d="M0 0 C148.17 0 296.34 0 449 0 C449 36.96 449 73.92 449 112 C300.83 112 152.66 112 0 112 C0 75.04 0 38.08 0 0 Z " fill="#FDFDFD" transform="translate(0,0)"/>
<path d="M0 0 C6.57858413 5.6387864 11.02832269 11.25836531 11.90625 20.07421875 C12.20079064 29.65906198 10.53019499 37.97922374 4.34375 45.5 C-1.67199467 51.62512185 -7.8854238 52.93466104 -16.375 55.25 C-23.965 55.25 -31.555 55.25 -39.375 55.25 C-39.375 35.78 -39.375 16.31 -39.375 -3.75 C-26.96247375 -6.85313156 -11.37165158 -5.89641193 0 0 Z " fill="#211C1E" transform="translate(148.375,30.75)"/>
<path d="M0 0 C4.95 0 9.9 0 15 0 C16.53344642 4.69450495 18.06325915 9.39017326 19.58984375 14.08691406 C20.10872439 15.68163304 20.62856406 17.27604033 21.14941406 18.87011719 C21.90166888 21.17299688 22.6503674 23.47700802 23.3984375 25.78125 C23.6287265 26.48366821 23.8590155 27.18608643 24.09628296 27.90979004 C25.60328064 32.56684249 26.85671568 37.24020407 28 42 C28.62829712 40.14483765 28.62829712 40.14483765 29.26928711 38.25219727 C30.81872875 33.67973509 32.37202588 29.10859066 33.92651367 24.5378418 C34.59977396 22.55643074 35.27197698 20.57466012 35.94311523 18.5925293 C36.90593589 15.74954373 37.87250601 12.90785752 38.83984375 10.06640625 C39.14091537 9.17474258 39.441987 8.28307892 39.75218201 7.36439514 C40.032397 6.54361984 40.312612 5.72284454 40.60131836 4.87719727 C40.97105019 3.78798729 40.97105019 3.78798729 41.34825134 2.67677307 C42 1 42 1 43 0 C45.35313555 -0.07271741 47.70833668 -0.08370868 50.0625 -0.0625 C51.35285156 -0.05347656 52.64320313 -0.04445313 53.97265625 -0.03515625 C54.97167969 -0.02355469 55.97070312 -0.01195313 57 0 C58.87830613 19.65796367 59.56500516 39.26785587 60 59 C56.37 59 52.74 59 49 59 C48.34 44.15 47.68 29.3 47 14 C45.081875 19.754375 43.16375 25.50875 41.1875 31.4375 C38.125 40.625 35.0625 49.8125 32 59 C29.03 59 26.06 59 23 59 C21.48749993 54.19883891 19.97589937 49.39739584 18.46508789 44.59570312 C17.9523069 42.96639585 17.43929136 41.33716237 16.92602539 39.70800781 C16.18312045 37.34980907 15.44109386 34.99133539 14.69921875 32.6328125 C14.47409103 31.91884308 14.24896332 31.20487366 14.01701355 30.4692688 C12.29567798 24.99256061 10.65004447 19.50014822 9 14 C8.34 28.85 7.68 43.7 7 59 C3.7 59 0.4 59 -3 59 C-3.2511401 46.09883998 -2.46077062 33.35971055 -1.5 20.5 C-1.35494383 18.50134011 -1.21040929 16.50264229 -1.06640625 14.50390625 C-0.71693328 9.66881367 -0.3604623 4.83428521 0 0 Z " fill="#232021" transform="translate(262,26)"/>
<path d="M0 0 C5.27972526 3.15224103 8.5929271 7.51995162 10.5 13.375 C11.21244157 20.30887898 11.60493715 27.54894366 7.90625 33.69140625 C4.38146673 37.91135511 0.01215954 41.46298815 -5.5 42.375 C-14.23650616 42.96194873 -20.35588379 42.94086743 -27.1875 37.0625 C-32.1064403 31.34589371 -33.95818616 25.29939995 -33.8359375 17.87890625 C-32.93989536 11.20026661 -29.66607389 5.8930699 -24.375 1.8125 C-17.50964316 -2.90242406 -7.60615978 -3.5049417 0 0 Z " fill="#231F20" transform="translate(199.5,43.625)"/>
<path d="M0 0 C4.01612404 3.23036064 5.91637382 6.30079161 6.875 11.3125 C6.95697613 13.62898688 6.98247793 15.94770889 6.97265625 18.265625 C6.9712413 18.92584656 6.96982635 19.58606812 6.96836853 20.26629639 C6.96279245 22.36507794 6.95024447 24.46375095 6.9375 26.5625 C6.9324819 27.98958179 6.92791954 29.41666525 6.92382812 30.84375 C6.91283088 34.33336832 6.8955828 37.82292356 6.875 41.3125 C3.905 41.3125 0.935 41.3125 -2.125 41.3125 C-2.125 39.9925 -2.125 38.6725 -2.125 37.3125 C-2.78242188 37.85390625 -2.78242188 37.85390625 -3.453125 38.40625 C-8.65631844 42.21346471 -12.92245098 43.0721164 -19.33984375 42.8125 C-23.58888462 42.04969883 -25.29697975 40.52268515 -28.125 37.3125 C-30.1143648 33.3337704 -29.64515839 28.63899386 -29.125 24.3125 C-26.36271808 19.41167723 -22.77498229 17.06995483 -17.68359375 14.9921875 C-13.18815266 13.79797872 -8.73383825 14.00237257 -4.125 14.3125 C-5.06950739 10.10197634 -5.06950739 10.10197634 -7.89453125 7.09765625 C-10.54899975 6.16324615 -12.28117943 6.26929953 -15.0625 6.625 C-16.37154297 6.78742187 -16.37154297 6.78742187 -17.70703125 6.953125 C-20.20129356 7.32383927 -22.66860418 7.73934098 -25.125 8.3125 C-25.455 6.0025 -25.785 3.6925 -26.125 1.3125 C-18.0710639 -1.96367739 -8.14820963 -4.24673637 0 0 Z " fill="#211D1E" transform="translate(360.125,43.6875)"/>
<path d="M0 0 C0 16.83 0 33.66 0 51 C-4.25705557 49.58098148 -7.29363077 48.43741504 -11.0546875 46.27734375 C-11.9923999 45.74262451 -12.9301123 45.20790527 -13.89624023 44.65698242 C-14.87923096 44.08955322 -15.86222168 43.52212402 -16.875 42.9375 C-18.92569082 41.76546677 -20.97647264 40.59359272 -23.02734375 39.421875 C-24.03522949 38.84373047 -25.04311523 38.26558594 -26.08154297 37.66992188 C-30.187833 35.32032979 -34.31118776 33.00169015 -38.4375 30.6875 C-39.72790976 29.96231997 -41.01827953 29.23706877 -42.30859375 28.51171875 C-43.19675781 28.01285156 -44.08492187 27.51398437 -45 27 C-45 26.34 -45 25.68 -45 25 C-44.34217529 24.63350342 -43.68435059 24.26700684 -43.0065918 23.8894043 C-30.80770721 17.08819992 -18.62069148 10.27527815 -6.5769043 3.2019043 C-1.10240669 0 -1.10240669 0 0 0 Z " fill="#1076BC" transform="translate(49,3)"/>
<path d="M0 0 C3.51887445 3.2481918 5.20224426 6.50561064 7 11 C7 14.63 7 18.26 7 22 C-2.57 22 -12.14 22 -22 22 C-19.75276275 28.5907652 -19.75276275 28.5907652 -15 32 C-11.9246345 32.3154608 -8.89846292 32.23651162 -5.8125 32.125 C-2.8722524 32.04756513 0.05803244 32.00590164 3 32 C4 33 4 33 4.0625 36.0625 C4.041875 37.031875 4.02125 38.00125 4 39 C-3.51175175 41.92513698 -12.84017617 42.39149768 -20.6796875 40.27734375 C-26.24269006 37.68477463 -28.92466284 33.99705472 -31.75 28.75 C-34.26528296 21.20415111 -33.45619136 14.14714288 -30 7 C-26.98623127 2.15543719 -23.62979713 -0.87984764 -18.140625 -2.56640625 C-11.48394524 -3.91474832 -5.97964731 -3.44979652 0 0 Z " fill="#211D1E" transform="translate(439,45)"/>
<path d="M0 0 C0 16.83 0 33.66 0 51 C-13.49325337 44.25337331 -13.49325337 44.25337331 -18.10546875 41.52734375 C-19.10900391 40.93759766 -20.11253906 40.34785156 -21.14648438 39.74023438 C-22.15001953 39.14533203 -23.15355469 38.55042969 -24.1875 37.9375 C-31.07983973 33.87211358 -37.97939918 29.84075302 -45 26 C-41.89176353 22.56378249 -38.68228732 20.51830589 -34.6171875 18.3203125 C-34.00287872 17.98506561 -33.38856995 17.64981873 -32.75564575 17.30441284 C-30.79893681 16.23799857 -28.8373082 15.1810698 -26.875 14.125 C-24.30818409 12.73490916 -21.74366697 11.34062661 -19.1796875 9.9453125 C-18.56083679 9.60993469 -17.94198608 9.27455688 -17.30438232 8.92901611 C-12.73048812 6.43741897 -8.27123348 3.7946836 -3.85986328 1.02685547 C-2 0 -2 0 0 0 Z " fill="#EF3F2C" transform="translate(97,31)"/>
<path d="M0 0 C4.40333168 1.46777723 7.62910593 2.74795831 11.5625 4.9765625 C12.60092041 5.56163574 13.63934082 6.14670898 14.70922852 6.74951172 C16.3381604 7.67787842 16.3381604 7.67787842 18 8.625 C19.11109131 9.25293457 20.22218262 9.88086914 21.36694336 10.52783203 C24.58119533 12.34626467 27.79129967 14.17179306 31 16 C31.83547363 16.47501953 32.67094727 16.95003906 33.53173828 17.43945312 C37.36014429 19.61653833 41.18371479 21.80171049 45 24 C45 24.66 45 25.32 45 26 C44.16529175 26.45101074 44.16529175 26.45101074 43.3137207 26.91113281 C31.62739498 33.23400734 20.00051428 39.63487028 8.52856445 46.34082031 C7.28465942 47.06156738 7.28465942 47.06156738 6.015625 47.796875 C5.28633789 48.22323242 4.55705078 48.64958984 3.80566406 49.08886719 C2 50 2 50 0 50 C0 33.5 0 17 0 0 Z " fill="#F8971D" transform="translate(51,4)"/>
<path d="M0 0 C3.89291396 1.55716559 7.29437854 3.17448268 10.9375 5.1953125 C12.08089844 5.82953125 13.22429688 6.46375 14.40234375 7.1171875 C14.99515137 7.4481543 15.58795898 7.77912109 16.19873047 8.12011719 C17.96471719 9.10531661 19.73405886 10.08425708 21.50390625 11.0625 C29.47982135 15.49031808 37.26974261 20.15735329 45 25 C41.38219449 28.0534447 37.70636959 30.41160019 33.5546875 32.6796875 C32.94416534 33.01493439 32.33364319 33.35018127 31.70462036 33.69558716 C29.76385191 34.75991943 27.81953009 35.81755892 25.875 36.875 C24.59350904 37.57638283 23.31225701 38.27820241 22.03125 38.98046875 C18.35732552 40.99279237 14.67886209 42.99671496 11 45 C7.37 46.98 3.74 48.96 0 51 C0 34.17 0 17.34 0 0 Z " fill="#28A0DB" transform="translate(3,31)"/>
<path d="M0 0 C0 16.83 0 33.66 0 51 C-13.49325337 44.25337331 -13.49325337 44.25337331 -18.10546875 41.52734375 C-19.10900391 40.93759766 -20.11253906 40.34785156 -21.14648438 39.74023438 C-22.15001953 39.14533203 -23.15355469 38.55042969 -24.1875 37.9375 C-31.07983973 33.87211358 -37.97939918 29.84075302 -45 26 C-42.57490424 23.29626764 -39.97007763 21.71131399 -36.80078125 19.9609375 C-35.24423828 19.095896 -35.24423828 19.095896 -33.65625 18.21337891 C-32.5528125 17.60671387 -31.449375 17.00004883 -30.3125 16.375 C-28.048069 15.11998667 -25.7837462 13.86477809 -23.51953125 12.609375 C-22.4104541 11.99642578 -21.30137695 11.38347656 -20.15869141 10.75195312 C-15.25584133 8.03261071 -10.37937592 5.26682686 -5.5090332 2.48974609 C-1.10968185 0 -1.10968185 0 0 0 Z " fill="#8AC53F" transform="translate(49,58)"/>
<path d="M0 0 C9.03658511 4.51829255 17.78042879 9.0492901 26.4375 14.1875 C28.47774116 15.38953244 30.51810255 16.59136081 32.55859375 17.79296875 C33.49558105 18.34645996 34.43256836 18.89995117 35.39794922 19.47021484 C38.58263616 21.34254064 41.78611189 23.17834471 45 25 C42.01789747 27.34308056 38.94773828 29.23553764 35.6328125 31.07421875 C34.58810791 31.65606934 33.54340332 32.23791992 32.46704102 32.83740234 C31.36416748 33.44793457 30.26129395 34.0584668 29.125 34.6875 C26.86555428 35.94341487 24.60643768 37.19992203 22.34765625 38.45703125 C20.71207764 39.36702881 20.71207764 39.36702881 19.04345703 40.29541016 C14.12102584 43.05238229 9.24542732 45.88795797 4.37890625 48.7421875 C2 50 2 50 0 50 C0 33.5 0 17 0 0 Z " fill="#0F6935" transform="translate(51,58)"/>
<path d="M0 0 C6.93236952 0.0810277 12.46228156 1.1536239 17.875 5.625 C23.7592858 12.89382364 23.72225283 19.23159975 23 28.25 C22.34193583 31.13022288 21.56917825 32.6720643 20 35.25 C19.484375 36.136875 18.96875 37.02375 18.4375 37.9375 C13.22434951 42.88330944 7.01207346 44.48880653 -0.0625 44.5625 C-4.81412104 44.43587896 -4.81412104 44.43587896 -6 43.25 C-6.1011692 40.15918535 -6.13968558 37.09117445 -6.1328125 34 C-6.13376923 33.07155273 -6.13472595 32.14310547 -6.13571167 31.18652344 C-6.13639355 29.21940035 -6.13453872 27.25227504 -6.13037109 25.28515625 C-6.12502295 22.26296974 -6.13031582 19.24093185 -6.13671875 16.21875 C-6.13605797 14.31249967 -6.13477681 12.40624943 -6.1328125 10.5 C-6.13483673 9.58959961 -6.13686096 8.67919922 -6.13894653 7.74121094 C-6.110196 0.1018366 -6.110196 0.1018366 0 0 Z " fill="#F8F8F8" transform="translate(125,33.75)"/>
<path d="M0 0 C0 3.96 0 7.92 0 12 C3.3 12 6.6 12 10 12 C10 14.64 10 17.28 10 20 C6.7 20 3.4 20 0 20 C0.10950024 23.9589232 0.24021668 27.91686326 0.375 31.875 C0.4059375 33.00292969 0.436875 34.13085938 0.46875 35.29296875 C0.50742187 36.36933594 0.54609375 37.44570312 0.5859375 38.5546875 C0.63306885 40.04718018 0.63306885 40.04718018 0.68115234 41.56982422 C0.77247083 44.17854517 0.77247083 44.17854517 3 46 C6.58343976 46.16677282 6.58343976 46.16677282 10 46 C10.09765625 52.15234375 10.09765625 52.15234375 10 54 C8.21927258 55.78072742 5.72356123 55.25615294 3.3125 55.3125 C-0.678411 55.26504565 -2.91020874 55.03870313 -6.625 53.4375 C-11.68712776 48.24215836 -11.21754126 41.72303766 -11.17578125 34.85351562 C-11.15902344 33.76748047 -11.14226562 32.68144531 -11.125 31.5625 C-11.11597656 30.44939453 -11.10695313 29.33628906 -11.09765625 28.18945312 C-11.0742224 25.45940977 -11.041414 22.7298199 -11 20 C-12.98 20 -14.96 20 -17 20 C-17 17.36 -17 14.72 -17 12 C-15.02 12 -13.04 12 -11 12 C-11 8.7 -11 5.4 -11 2 C-3.375 0 -3.375 0 0 0 Z " fill="#231F20" transform="translate(391,31)"/>
<path d="M0 0 C-0.33 2.64 -0.66 5.28 -1 8 C-1.66 7.835 -2.32 7.67 -3 7.5 C-8.59537875 6.56743687 -12.37105598 6.12519673 -17.375 8.8125 C-20.23875695 11.19896412 -21.85120481 12.75166637 -22.30078125 16.5234375 C-22.49283379 23.8320017 -22.49283379 23.8320017 -19 30 C-14.97203993 32.97062055 -12.14450033 33.33771213 -7.1875 33.1875 C-6.02605469 33.16042969 -4.86460937 33.13335937 -3.66796875 33.10546875 C-2.34732422 33.05326172 -2.34732422 33.05326172 -1 33 C-0.505 36.465 -0.505 36.465 0 40 C-5.44576697 43.63051131 -13.59631723 42.7984878 -20 42 C-25.32140093 40.17595039 -28.94735175 36.69638192 -32 32 C-34.93119493 25.91377343 -34.73204751 19.6108372 -34 13 C-31.82954893 7.14336964 -27.79404656 3.00554864 -22.29296875 0.09765625 C-15.06482623 -3.09685888 -7.20010552 -3.25626394 0 0 Z " fill="#211D1E" transform="translate(251,44)"/>
<path d="M0 0 C0.99 0.33 1.98 0.66 3 1 C2.67 17.5 2.34 34 2 51 C5.196875 49.2675 8.39375 47.535 11.6875 45.75 C12.75363525 45.17258057 13.81977051 44.59516113 14.91821289 44.00024414 C19.98918687 41.23807088 25.02015739 38.42644954 29.99609375 35.49609375 C30.94202393 34.94147461 31.8879541 34.38685547 32.86254883 33.81542969 C34.67979296 32.7445164 36.49105959 31.66338313 38.2956543 30.57128906 C39.118479 30.08756836 39.94130371 29.60384766 40.7890625 29.10546875 C41.86728271 28.45807739 41.86728271 28.45807739 42.96728516 27.79760742 C45.41012938 26.83907126 46.57324598 27.11751298 49 28 C48.37738281 28.29390625 47.75476563 28.5878125 47.11328125 28.890625 C36.44875445 34.06671332 26.2496525 40.05647531 16 46 C15.30052246 46.40557129 14.60104492 46.81114258 13.88037109 47.22900391 C10.58183042 49.14403947 7.28789485 51.06674506 4 53 C15.48397064 60.35156768 27.42072452 66.8958564 39.34375 73.5012207 C41.92403775 74.95713858 44.46696391 76.46360119 47 78 C46.67 78.66 46.34 79.32 46 80 C42.44742231 78.02916152 38.89520021 76.05768362 35.34326172 74.08569336 C33.56364998 73.09783206 31.78378283 72.11043092 30.00390625 71.12304688 C20.98369522 66.11458716 11.99277503 61.05843596 3 56 C3 72.5 3 89 3 106 C2.01 106 1.02 106 0 106 C-0.33 89.5 -0.66 73 -1 56 C-10.04863039 60.99505617 -10.04863039 60.99505617 -19.09692383 65.99072266 C-26.38706215 70.01395976 -33.68482348 74.02239065 -41 78 C-41.33 77.34 -41.66 76.68 -42 76 C-41.17910889 75.55197021 -40.35821777 75.10394043 -39.51245117 74.64233398 C-36.41133953 72.94742623 -33.31214602 71.24910503 -30.21411133 69.54858398 C-28.88346198 68.81905921 -27.55210316 68.09082673 -26.2199707 67.36401367 C-17.95316415 62.85229891 -9.86905827 58.18892002 -2 53 C-2.65782471 52.63350342 -3.31564941 52.26700684 -3.9934082 51.8894043 C-7.10066205 50.15702719 -10.20657549 48.42225923 -13.3125 46.6875 C-14.34568359 46.11193359 -15.37886719 45.53636719 -16.44335938 44.94335938 C-26.36085082 39.40035056 -36.16332273 33.69491842 -46 28 C-46 44.83 -46 61.66 -46 79 C-46.33 79 -46.66 79 -47 79 C-47 61.84 -47 44.68 -47 27 C-41.91374596 27.84770901 -39.73266714 28.42188726 -35.5078125 30.84375 C-34.47140625 31.4315625 -33.435 32.019375 -32.3671875 32.625 C-31.29726563 33.24375 -30.22734375 33.8625 -29.125 34.5 C-28.09375 35.0878125 -27.0625 35.675625 -26 36.28125 C-22.66400971 38.18284643 -19.33209387 40.09158427 -16 42 C-10.72 44.97 -5.44 47.94 0 51 C0 34.17 0 17.34 0 0 Z " fill="#E6E7E4" transform="translate(49,3)"/>
<path d="M0 0 C0.42297363 0.73524902 0.84594727 1.47049805 1.28173828 2.22802734 C2.88012946 5.00546656 4.47935093 7.78242565 6.07910156 10.55908203 C6.7659482 11.75160427 7.45248165 12.94430697 8.13867188 14.13720703 C12.35585515 21.46795398 16.61594505 28.76765286 21 36 C20.01 36.495 20.01 36.495 19 37 C16.74780273 35.98706055 16.74780273 35.98706055 13.93359375 34.38671875 C12.37983032 33.51007568 12.37983032 33.51007568 10.79467773 32.61572266 C9.68680908 31.97940918 8.57894043 31.3430957 7.4375 30.6875 C6.31609619 30.05118652 5.19469238 29.41487305 4.03930664 28.75927734 C-5.02843113 23.59938766 -14.0418683 18.3477705 -23 13 C-19.52271826 9.04152783 -15.48743089 6.76454327 -10.9375 4.25 C-10.21755859 3.83878906 -9.49761719 3.42757812 -8.75585938 3.00390625 C-3.38176132 0 -3.38176132 0 0 0 Z " fill="#C22028" transform="translate(75,44)"/>
<path d="M0 0 C4.88812447 1.02062771 8.86818518 3.51827654 13.1875 5.9375 C14.01958984 6.39318359 14.85167969 6.84886719 15.70898438 7.31835938 C16.49982422 7.75857422 17.29066406 8.19878906 18.10546875 8.65234375 C18.82887451 9.05445068 19.55228027 9.45655762 20.29760742 9.87084961 C22 11 22 11 23 13 C22.33170166 13.3717334 21.66340332 13.7434668 20.97485352 14.12646484 C7.55640016 21.59714875 -5.81266168 29.12750367 -19 37 C-20 34 -20 34 -18.92358398 31.61499023 C-18.37001221 30.68887939 -17.81644043 29.76276855 -17.24609375 28.80859375 C-16.63830078 27.78056641 -16.03050781 26.75253906 -15.40429688 25.69335938 C-14.75525391 24.61892578 -14.10621094 23.54449219 -13.4375 22.4375 C-12.81552734 21.39013672 -12.19355469 20.34277344 -11.55273438 19.26367188 C-9.71230395 16.16936408 -7.85802234 13.08376988 -6 10 C-4.84476105 8.07439332 -3.68978811 6.14862701 -2.53515625 4.22265625 C-1.69020095 2.81504606 -0.84518878 1.40747001 0 0 Z " fill="#29BEEF" transform="translate(25,44)"/>
<path d="M0 0 C0.33 0 0.66 0 1 0 C1 16.17 1 32.34 1 49 C-5.75 46.75 -5.75 46.75 -9.0859375 44.8359375 C-9.78847656 44.43632813 -10.49101563 44.03671875 -11.21484375 43.625 C-11.92769531 43.2125 -12.64054687 42.8 -13.375 42.375 C-14.11105469 41.95476563 -14.84710938 41.53453125 -15.60546875 41.1015625 C-17.4063765 40.07247236 -19.20357318 39.03689244 -21 38 C-19.62319766 33.33648024 -17.63931916 29.32726368 -15.15625 25.17578125 C-14.78649048 24.54770065 -14.41673096 23.91962006 -14.0357666 23.27250671 C-12.86246255 21.28265943 -11.68128034 19.29762015 -10.5 17.3125 C-9.70652938 15.96839511 -8.91355577 14.62399667 -8.12109375 13.27929688 C-2.44326703 3.66490054 -2.44326703 3.66490054 0 0 Z " fill="#2B2F90" transform="translate(48,5)"/>
<path d="M0 0 C2.96490469 3.70613087 5.24840477 6.93722868 7.56640625 11 C8.21673828 12.134375 8.86707031 13.26875 9.53710938 14.4375 C10.21238695 15.6249162 10.88751591 16.81241694 11.5625 18 C12.24113356 19.18773029 12.92016671 20.37523237 13.59960938 21.5625 C14.8505128 23.74878603 16.0995086 25.93616546 17.34594727 28.125 C18.4358248 30.01937607 19.55829024 31.89542663 20.71459961 33.75 C22 36 22 36 22 38 C18.7121022 39.84015498 15.41908674 41.67095047 12.125 43.5 C11.18785156 44.02464844 10.25070313 44.54929688 9.28515625 45.08984375 C8.38925781 45.58613281 7.49335937 46.08242188 6.5703125 46.59375 C5.74289551 47.05458984 4.91547852 47.51542969 4.06298828 47.99023438 C2 49 2 49 0 49 C0 32.83 0 16.66 0 0 Z " fill="#F05B1F" transform="translate(51,5)"/>
<path d="M0 0 C10.20169953 4.86899296 19.91780014 10.35522532 29.64648438 16.11181641 C34.36550616 18.90081647 39.04210564 21.65688554 44 24 C44 24.33 44 24.66 44 25 C29.48 25 14.96 25 0 25 C0 16.75 0 8.5 0 0 Z " fill="#79C142" transform="translate(51,58)"/>
<path d="M0 0 C0 8.25 0 16.5 0 25 C-14.19 25 -28.38 25 -43 25 C-40.36035874 22.36035874 -38.43275862 20.96051509 -35.23828125 19.1796875 C-34.29098145 18.64819092 -33.34368164 18.11669434 -32.36767578 17.5690918 C-31.35946777 17.0100415 -30.35125977 16.45099121 -29.3125 15.875 C-28.28624512 15.30112549 -27.25999023 14.72725098 -26.20263672 14.13598633 C-24.12356234 12.97346347 -22.04348898 11.81272535 -19.96240234 10.65380859 C-17.28805763 9.16081279 -14.62060335 7.65663806 -11.95703125 6.14453125 C-11.21735107 5.72510254 -10.4776709 5.30567383 -9.71557617 4.87353516 C-8.346655 4.09691259 -6.9783054 3.31928145 -5.6105957 2.54052734 C-1.11252392 0 -1.11252392 0 0 0 Z " fill="#0E9546" transform="translate(49,58)"/>
<path d="M0 0 C4.09041119 2.40089352 5.538739 4.57776275 7 9 C7.6648304 14.31091261 7.66364955 18.6727009 5.25 23.5 C1.30964467 27.87817259 1.30964467 27.87817259 -1 29 C-5.48404252 29 -7.43047533 28.48285788 -10.875 25.5625 C-14.17371787 21.58463434 -14.18538711 19.32960897 -14.25 14.1875 C-14.27578125 12.96417969 -14.3015625 11.74085937 -14.328125 10.48046875 C-13.97602414 6.74568461 -13.26603413 4.94902105 -11 2 C-7.30390328 -0.46406448 -4.28972609 -0.67864807 0 0 Z " fill="#FAFAFA" transform="translate(192,50)"/>
<path d="M0 0 C0.47493725 4.84435994 0.72418203 7.9563259 -2.125 12.0625 C-5.51051929 14.34404561 -7.00343438 14.7652998 -11 14 C-13.7461572 12.04878304 -14.78757724 10.82844875 -15.625 7.5625 C-14.86487683 4.44599501 -13.46467246 2.8798146 -10.93359375 0.9375 C-7.41816585 -0.76694989 -3.80566687 -0.38056669 0 0 Z " fill="#F7F6F6" transform="translate(356,65)"/>
<path d="M0 0 C2.8125 1.5625 2.8125 1.5625 5 4 C5.33 6.31 5.66 8.62 6 11 C-0.27 11 -6.54 11 -13 11 C-12 5 -12 5 -9.3125 2.125 C-5.66577399 -0.21440914 -4.22171035 -0.80841262 0 0 Z " fill="#F2F2F2" transform="translate(430,49)"/>
<path d="M0 0 C0 2.64 0 5.28 0 8 C-0.66 8 -1.32 8 -2 8 C-2 6.02 -2 4.04 -2 2 C-3.32 1.67 -4.64 1.34 -6 1 C-3.92446352 0.4465236 -2.15634036 0 0 0 Z " fill="#332F30" transform="translate(401,77)"/>
</svg>
